<svg width="43" height="42" viewBox="0 0 43 42" fill="none" xmlns="http://www.w3.org/2000/svg">
<path d="M14.7612 42C15.4258 41.7134 15.8913 41.0511 15.8913 40.2801V35.2217C15.8913 35.0372 15.9063 34.8451 15.9296 34.6503C15.9165 34.654 15.9044 34.6568 15.8913 34.6596C15.8913 34.6596 13.087 34.6596 12.5261 34.6596C11.1239 34.6596 9.9087 34.0976 9.34783 32.9735C8.69348 31.7557 8.41304 29.6949 6.73043 28.5708C6.45 28.3834 6.63696 28.1024 7.19783 28.1024C7.7587 28.1961 8.97391 28.9455 9.72174 29.9759C10.563 31.0063 11.4043 31.8494 12.9 31.8494C15.2248 31.8494 16.4709 31.7323 17.2206 31.3295C18.0937 30.0284 19.3023 29.0392 20.5652 29.0392V29.0157C15.2669 28.8453 11.882 27.0804 10.306 24.3554C6.88 24.3948 3.89711 24.7348 2.19487 25.0177C2.14065 24.7114 2.09391 24.4032 2.05372 24.0931C3.73352 23.8159 6.58087 23.4871 9.85448 23.4243C9.74978 23.1658 9.65911 22.9007 9.58246 22.629C6.30044 22.4623 3.46804 22.5925 1.92939 22.7199C1.9107 22.4089 1.88546 22.0988 1.88172 21.7841C3.42317 21.6576 6.17891 21.5311 9.3768 21.6801C9.30296 21.2117 9.25528 20.733 9.25528 20.2347C9.25528 18.6422 9.81615 16.9561 10.8444 15.5509C10.377 13.9585 9.72267 10.5862 11.0314 9.36841C13.5553 9.36841 15.3314 10.5862 16.1727 11.3356C17.7609 10.6789 19.537 10.3042 21.5 10.3042C23.463 10.3042 25.2391 10.6789 26.7348 11.3346C27.5761 10.5852 29.3522 9.36747 31.8761 9.36747C33.2783 10.6789 32.5304 14.0512 32.063 15.55C33.0913 16.9551 33.6522 18.5476 33.5587 20.2337C33.5587 20.6871 33.5166 21.1246 33.4559 21.5536C36.7267 21.3925 39.5572 21.5218 41.1248 21.6492C41.123 21.9649 41.094 22.273 41.0772 22.585C39.5151 22.4557 36.6136 22.3227 33.2633 22.5016C33.1801 22.8164 33.0792 23.1227 32.9595 23.4196C36.2742 23.4627 39.1898 23.784 40.95 24.065C40.9098 24.376 40.8631 24.6842 40.8089 24.9896C39.0216 24.703 35.9751 24.3676 32.5089 24.3507C30.9525 27.0467 27.6294 28.805 22.4348 29.0101V29.0392C24.8652 29.0392 27.1087 32.6925 27.1087 35.2217V40.2801C27.1087 41.0511 27.5742 41.7134 28.2388 42C36.8024 39.1598 43 31.0663 43 21.5452C43 9.66536 33.3558 0 21.5 0C9.64415 0 0 9.66536 0 21.5452C0 31.0663 6.19761 39.1598 14.7612 42Z" fill="white"/>
</svg>
