<svg width="40" height="40" viewBox="0 0 40 40" fill="none" xmlns="http://www.w3.org/2000/svg">
<path d="M4.7619 0C2.14332 0 0 2.14332 0 4.7619V35.2381C0 37.8567 2.14332 40 4.7619 40H35.2381C37.8567 40 40 37.8567 40 35.2381V4.7619C40 2.14332 37.8567 0 35.2381 0H4.7619ZM4.7619 1.90476H35.2381C36.8271 1.90476 38.0952 3.17287 38.0952 4.7619V35.2381C38.0952 36.8271 36.8271 38.0952 35.2381 38.0952H4.7619C3.17287 38.0952 1.90476 36.8271 1.90476 35.2381V4.7619C1.90476 3.17287 3.17287 1.90476 4.7619 1.90476ZM9.52381 6.67783C8.48074 6.67783 7.54211 6.9896 6.8471 7.5744C6.15208 8.15921 5.72545 9.03287 5.72545 9.96838C5.72545 11.7466 7.26789 13.133 9.22991 13.2701L9.23363 13.2719C9.32712 13.3038 9.42505 13.3208 9.52381 13.3222C11.6886 13.3222 13.3222 11.8058 13.3222 9.96838C13.322 9.95162 13.3214 9.93488 13.3203 9.91815C13.2234 8.10841 11.6099 6.67783 9.52381 6.67783ZM9.52381 8.56027C10.8497 8.56027 11.3733 9.15242 11.4304 9.99256C11.4189 10.808 10.9144 11.4397 9.52381 11.4397C8.20438 11.4397 7.60789 10.764 7.60789 9.96838C7.60789 9.57056 7.75305 9.27076 8.05804 9.01414C8.36302 8.75751 8.85259 8.56027 9.52381 8.56027ZM6.66667 14.2857C6.41409 14.2857 6.17186 14.3861 5.99326 14.5647C5.81466 14.7433 5.71431 14.9855 5.71429 15.2381V33.3333C5.71431 33.5859 5.81466 33.8281 5.99326 34.0067C6.17186 34.1853 6.41409 34.2857 6.66667 34.2857H12.381C12.6335 34.2857 12.8758 34.1853 13.0544 34.0067C13.233 33.8281 13.3333 33.5859 13.3333 33.3333V27.7474V15.2381C13.3333 14.9855 13.233 14.7433 13.0544 14.5647C12.8758 14.3861 12.6335 14.2857 12.381 14.2857H6.66667ZM15.2381 14.2857C14.9855 14.2857 14.7433 14.3861 14.5647 14.5647C14.3861 14.7433 14.2857 14.9855 14.2857 15.2381V33.3333C14.2857 33.5859 14.3861 33.8281 14.5647 34.0067C14.7433 34.1853 14.9855 34.2857 15.2381 34.2857H20.9524C21.205 34.2857 21.4472 34.1853 21.6258 34.0067C21.8044 33.8281 21.9047 33.5859 21.9048 33.3333V23.8095C21.9048 23.0194 22.1204 22.2334 22.5 21.7188C22.8796 21.2041 23.3585 20.8953 24.269 20.9115C25.2078 20.9276 25.7048 21.2492 26.0807 21.7541C26.4567 22.259 26.6667 23.0159 26.6667 23.8095V33.3333C26.6667 33.5859 26.767 33.8281 26.9456 34.0067C27.1242 34.1853 27.3665 34.2857 27.619 34.2857H33.3333C33.5859 34.2857 33.8281 34.1853 34.0067 34.0067C34.1853 33.8281 34.2857 33.5859 34.2857 33.3333V23.1064C34.2857 20.2859 33.4503 18.0517 32.0182 16.5402C30.5862 15.0286 28.5945 14.2857 26.4881 14.2857C24.4862 14.2857 22.9627 14.957 21.9048 15.6417V15.2381C21.9047 14.9855 21.8044 14.7433 21.6258 14.5647C21.4472 14.3861 21.205 14.2857 20.9524 14.2857H15.2381ZM7.61905 16.1905H11.4286V27.7474V32.381H7.61905V16.1905ZM16.1905 16.1905H20V17.6767C20.0001 17.8764 20.0629 18.071 20.1796 18.2331C20.2963 18.3951 20.461 18.5164 20.6504 18.5797C20.8398 18.6431 21.0443 18.6453 21.235 18.586C21.4257 18.5268 21.593 18.4091 21.7132 18.2496C21.7132 18.2496 23.2088 16.1905 26.4881 16.1905C28.1579 16.1905 29.5899 16.7453 30.6362 17.8497C31.6824 18.9541 32.381 20.6555 32.381 23.1064V32.381H28.5714V23.8095C28.5714 22.6984 28.3052 21.5496 27.6097 20.6157C26.9143 19.6818 25.7446 19.0315 24.3025 19.0067C22.8529 18.981 21.6643 19.6448 20.9673 20.5897C20.2702 21.5346 20 22.6949 20 23.8095V32.381H16.1905V16.1905Z" fill="white"/>
</svg>
